<svg width="20" height="20" viewBox="0 0 20 20" fill="none" xmlns="http://www.w3.org/2000/svg">
<path d="M9.9999 3.29833C9.0919 2.46342 7.90341 2.00004 6.6699 2C6.01702 2.00068 5.37071 2.13047 4.76818 2.38189C4.16565 2.63331 3.61879 3.00141 3.15907 3.465C1.19824 5.43417 1.19907 8.51417 3.16074 10.475L9.27074 16.585C9.4124 16.8342 9.68574 16.995 9.9999 16.995C10.1289 16.9937 10.2558 16.9623 10.3704 16.9031C10.4851 16.8439 10.5842 16.7586 10.6599 16.6542L16.8391 10.475C18.8007 8.51333 18.8007 5.43417 16.8374 3.46167C16.3779 2.99893 15.8315 2.63158 15.2295 2.38074C14.6276 2.12989 13.982 2.0005 13.3299 2C12.0964 2.0002 10.908 2.46356 9.9999 3.29833ZM15.6591 4.64C16.9616 5.94917 16.9624 7.99417 15.6607 9.29667L9.9999 14.9575L4.33907 9.29667C3.0374 7.99417 3.03824 5.94917 4.3374 4.64333C4.97074 4.01333 5.79907 3.66667 6.6699 3.66667C7.54074 3.66667 8.36574 4.01333 8.99407 4.64167L9.41074 5.05833C9.48806 5.13579 9.5799 5.19724 9.68099 5.23916C9.78209 5.28109 9.89046 5.30267 9.9999 5.30267C10.1093 5.30267 10.2177 5.28109 10.3188 5.23916C10.4199 5.19724 10.5117 5.13579 10.5891 5.05833L11.0057 4.64167C12.2657 3.38417 14.4007 3.3875 15.6591 4.64Z" fill="black"/>
</svg>
